<svg xmlns="http://www.w3.org/2000/svg" xmlns:xlink="http://www.w3.org/1999/xlink" width="1920" zoomAndPan="magnify" viewBox="0 0 1440 374.999991" height="500" preserveAspectRatio="xMidYMid meet" version="1.0"><defs><g/></defs><path stroke-linecap="round" transform="matrix(0.500181, -0.273755, 0.273755, 0.500181, 238.445114, 240.039783)" fill="none" stroke-linejoin="miter" d="M 62.500376 62.500213 L 304.748192 62.500704 " stroke="#fbbb07" stroke-width="125" stroke-opacity="1" stroke-miterlimit="4"/><path stroke-linecap="round" transform="matrix(0.499078, 0.275762, -0.275762, 0.499078, 273.485507, 72.437544)" fill="none" stroke-linejoin="miter" d="M 62.496407 62.498484 L 304.748657 62.500087 " stroke="#119d58" stroke-width="125" stroke-opacity="1" stroke-miterlimit="4"/><path stroke-linecap="round" transform="matrix(-0.500181, 0.273755, -0.273755, -0.500181, 218.318528, 134.960206)" fill="none" stroke-linejoin="miter" d="M 62.497333 62.498527 L 304.745149 62.499018 " stroke="#ea4336" stroke-width="125" stroke-opacity="1" stroke-miterlimit="4"/><path stroke-linecap="round" transform="matrix(-0.499078, -0.275762, 0.275762, -0.499078, 183.278134, 302.562431)" fill="none" stroke-linejoin="miter" d="M 62.499337 62.496816 L 304.745591 62.501732 " stroke="#4284f3" stroke-width="125" stroke-opacity="1" stroke-miterlimit="4"/><g fill="#656c73" fill-opacity="1"><g transform="translate(558.220626, 229.529719)"><g><path d="M 68.1875 -59.953125 C 66.21875 -63.554688 63.515625 -66.300781 60.078125 -68.1875 C 56.640625 -70.070312 52.625 -71.015625 48.03125 -71.015625 C 42.957031 -71.015625 38.453125 -69.863281 34.515625 -67.5625 C 30.585938 -65.269531 27.515625 -61.992188 25.296875 -57.734375 C 23.085938 -53.484375 21.984375 -48.570312 21.984375 -43 C 21.984375 -37.269531 23.109375 -32.273438 25.359375 -28.015625 C 27.617188 -23.753906 30.753906 -20.476562 34.765625 -18.1875 C 38.785156 -15.894531 43.457031 -14.75 48.78125 -14.75 C 55.332031 -14.75 60.695312 -16.488281 64.875 -19.96875 C 69.050781 -23.445312 71.789062 -28.300781 73.09375 -34.53125 L 43.609375 -34.53125 L 43.609375 -47.671875 L 90.0625 -47.671875 L 90.0625 -32.6875 C 88.914062 -26.707031 86.457031 -21.175781 82.6875 -16.09375 C 78.914062 -11.019531 74.0625 -6.945312 68.125 -3.875 C 62.1875 -0.800781 55.53125 0.734375 48.15625 0.734375 C 39.882812 0.734375 32.410156 -1.125 25.734375 -4.84375 C 19.054688 -8.570312 13.8125 -13.753906 10 -20.390625 C 6.195312 -27.023438 4.296875 -34.5625 4.296875 -43 C 4.296875 -51.4375 6.195312 -58.992188 10 -65.671875 C 13.8125 -72.347656 19.054688 -77.546875 25.734375 -81.265625 C 32.410156 -84.992188 39.84375 -86.859375 48.03125 -86.859375 C 57.695312 -86.859375 66.09375 -84.503906 73.21875 -79.796875 C 80.34375 -75.085938 85.257812 -68.472656 87.96875 -59.953125 Z M 68.1875 -59.953125 "/></g></g></g><g fill="#656c73" fill-opacity="1"><g transform="translate(652.563889, 229.529719)"><g><path d="M 38.453125 -85.75 C 47.460938 -85.75 55.382812 -83.988281 62.21875 -80.46875 C 69.0625 -76.945312 74.347656 -71.929688 78.078125 -65.421875 C 81.804688 -58.910156 83.671875 -51.351562 83.671875 -42.75 C 83.671875 -34.15625 81.804688 -26.640625 78.078125 -20.203125 C 74.347656 -13.773438 69.0625 -8.800781 62.21875 -5.28125 C 55.382812 -1.757812 47.460938 0 38.453125 0 L 8.484375 0 L 8.484375 -85.75 Z M 37.84375 -14.625 C 46.851562 -14.625 53.8125 -17.078125 58.71875 -21.984375 C 63.632812 -26.898438 66.09375 -33.820312 66.09375 -42.75 C 66.09375 -51.675781 63.632812 -58.660156 58.71875 -63.703125 C 53.8125 -68.742188 46.851562 -71.265625 37.84375 -71.265625 L 25.671875 -71.265625 L 25.671875 -14.625 Z M 37.84375 -14.625 "/></g></g></g><g fill="#656c73" fill-opacity="1"><g transform="translate(740.642168, 229.529719)"><g><path d="M 38.09375 0.859375 C 32.113281 0.859375 26.726562 -0.160156 21.9375 -2.203125 C 17.144531 -4.253906 13.351562 -7.203125 10.5625 -11.046875 C 7.78125 -14.898438 6.347656 -19.445312 6.265625 -24.6875 L 24.6875 -24.6875 C 24.9375 -21.164062 26.1875 -18.378906 28.4375 -16.328125 C 30.695312 -14.285156 33.789062 -13.265625 37.71875 -13.265625 C 41.726562 -13.265625 44.878906 -14.226562 47.171875 -16.15625 C 49.472656 -18.082031 50.625 -20.601562 50.625 -23.71875 C 50.625 -26.25 49.84375 -28.332031 48.28125 -29.96875 C 46.726562 -31.613281 44.785156 -32.90625 42.453125 -33.84375 C 40.117188 -34.789062 36.898438 -35.835938 32.796875 -36.984375 C 27.234375 -38.617188 22.707031 -40.234375 19.21875 -41.828125 C 15.738281 -43.429688 12.75 -45.847656 10.25 -49.078125 C 7.757812 -52.316406 6.515625 -56.640625 6.515625 -62.046875 C 6.515625 -67.117188 7.78125 -71.539062 10.3125 -75.3125 C 12.851562 -79.082031 16.414062 -81.96875 21 -83.96875 C 25.59375 -85.976562 30.835938 -86.984375 36.734375 -86.984375 C 45.578125 -86.984375 52.765625 -84.832031 58.296875 -80.53125 C 63.828125 -76.226562 66.878906 -70.226562 67.453125 -62.53125 L 48.53125 -62.53125 C 48.363281 -65.476562 47.113281 -67.914062 44.78125 -69.84375 C 42.445312 -71.769531 39.351562 -72.734375 35.5 -72.734375 C 32.144531 -72.734375 29.460938 -71.875 27.453125 -70.15625 C 25.453125 -68.4375 24.453125 -65.9375 24.453125 -62.65625 C 24.453125 -60.363281 25.207031 -58.457031 26.71875 -56.9375 C 28.238281 -55.425781 30.125 -54.195312 32.375 -53.25 C 34.625 -52.3125 37.796875 -51.226562 41.890625 -50 C 47.460938 -48.363281 52.007812 -46.722656 55.53125 -45.078125 C 59.050781 -43.441406 62.082031 -40.984375 64.625 -37.703125 C 67.164062 -34.429688 68.4375 -30.132812 68.4375 -24.8125 C 68.4375 -20.226562 67.25 -15.96875 64.875 -12.03125 C 62.5 -8.101562 59.015625 -4.972656 54.421875 -2.640625 C 49.835938 -0.304688 44.394531 0.859375 38.09375 0.859375 Z M 38.09375 0.859375 "/></g></g></g><g fill="#656c73" fill-opacity="1"><g transform="translate(815.453416, 229.529719)"><g><path d="M 4.296875 -43 C 4.296875 -51.4375 6.195312 -58.992188 10 -65.671875 C 13.8125 -72.347656 19.015625 -77.546875 25.609375 -81.265625 C 32.203125 -84.992188 39.597656 -86.859375 47.796875 -86.859375 C 57.378906 -86.859375 65.773438 -84.398438 72.984375 -79.484375 C 80.191406 -74.578125 85.226562 -67.78125 88.09375 -59.09375 L 68.3125 -59.09375 C 66.34375 -63.1875 63.578125 -66.253906 60.015625 -68.296875 C 56.453125 -70.347656 52.335938 -71.375 47.671875 -71.375 C 42.671875 -71.375 38.222656 -70.207031 34.328125 -67.875 C 30.441406 -65.539062 27.410156 -62.242188 25.234375 -57.984375 C 23.066406 -53.722656 21.984375 -48.726562 21.984375 -43 C 21.984375 -37.351562 23.066406 -32.378906 25.234375 -28.078125 C 27.410156 -23.773438 30.441406 -20.457031 34.328125 -18.125 C 38.222656 -15.789062 42.671875 -14.625 47.671875 -14.625 C 52.335938 -14.625 56.453125 -15.664062 60.015625 -17.75 C 63.578125 -19.84375 66.34375 -22.9375 68.3125 -27.03125 L 88.09375 -27.03125 C 85.226562 -18.269531 80.210938 -11.453125 73.046875 -6.578125 C 65.878906 -1.703125 57.460938 0.734375 47.796875 0.734375 C 39.597656 0.734375 32.203125 -1.125 25.609375 -4.84375 C 19.015625 -8.570312 13.8125 -13.753906 10 -20.390625 C 6.195312 -27.023438 4.296875 -34.5625 4.296875 -43 Z M 4.296875 -43 "/></g></g></g><g fill="#656c73" fill-opacity="1"><g transform="translate(909.796679, 229.529719)"><g/></g></g><g fill="#656c73" fill-opacity="1"><g transform="translate(939.03325, 229.529719)"><g><path d="M 71.015625 -59.21875 C 71.015625 -54.632812 69.925781 -50.332031 67.75 -46.3125 C 65.582031 -42.300781 62.1875 -39.066406 57.5625 -36.609375 C 52.9375 -34.148438 47.097656 -32.921875 40.046875 -32.921875 L 25.671875 -32.921875 L 25.671875 0 L 8.484375 0 L 8.484375 -85.75 L 40.046875 -85.75 C 46.679688 -85.75 52.332031 -84.601562 57 -82.3125 C 61.675781 -80.019531 65.179688 -76.863281 67.515625 -72.84375 C 69.847656 -68.832031 71.015625 -64.289062 71.015625 -59.21875 Z M 39.3125 -46.8125 C 44.0625 -46.8125 47.582031 -47.894531 49.875 -50.0625 C 52.175781 -52.238281 53.328125 -55.289062 53.328125 -59.21875 C 53.328125 -67.570312 48.65625 -71.75 39.3125 -71.75 L 25.671875 -71.75 L 25.671875 -46.8125 Z M 39.3125 -46.8125 "/></g></g></g><g fill="#656c73" fill-opacity="1"><g transform="translate(1013.72169, 229.529719)"><g><path d="M 38.09375 0.859375 C 32.113281 0.859375 26.726562 -0.160156 21.9375 -2.203125 C 17.144531 -4.253906 13.351562 -7.203125 10.5625 -11.046875 C 7.78125 -14.898438 6.347656 -19.445312 6.265625 -24.6875 L 24.6875 -24.6875 C 24.9375 -21.164062 26.1875 -18.378906 28.4375 -16.328125 C 30.695312 -14.285156 33.789062 -13.265625 37.71875 -13.265625 C 41.726562 -13.265625 44.878906 -14.226562 47.171875 -16.15625 C 49.472656 -18.082031 50.625 -20.601562 50.625 -23.71875 C 50.625 -26.25 49.84375 -28.332031 48.28125 -29.96875 C 46.726562 -31.613281 44.785156 -32.90625 42.453125 -33.84375 C 40.117188 -34.789062 36.898438 -35.835938 32.796875 -36.984375 C 27.234375 -38.617188 22.707031 -40.234375 19.21875 -41.828125 C 15.738281 -43.429688 12.75 -45.847656 10.25 -49.078125 C 7.757812 -52.316406 6.515625 -56.640625 6.515625 -62.046875 C 6.515625 -67.117188 7.78125 -71.539062 10.3125 -75.3125 C 12.851562 -79.082031 16.414062 -81.96875 21 -83.96875 C 25.59375 -85.976562 30.835938 -86.984375 36.734375 -86.984375 C 45.578125 -86.984375 52.765625 -84.832031 58.296875 -80.53125 C 63.828125 -76.226562 66.878906 -70.226562 67.453125 -62.53125 L 48.53125 -62.53125 C 48.363281 -65.476562 47.113281 -67.914062 44.78125 -69.84375 C 42.445312 -71.769531 39.351562 -72.734375 35.5 -72.734375 C 32.144531 -72.734375 29.460938 -71.875 27.453125 -70.15625 C 25.453125 -68.4375 24.453125 -65.9375 24.453125 -62.65625 C 24.453125 -60.363281 25.207031 -58.457031 26.71875 -56.9375 C 28.238281 -55.425781 30.125 -54.195312 32.375 -53.25 C 34.625 -52.3125 37.796875 -51.226562 41.890625 -50 C 47.460938 -48.363281 52.007812 -46.722656 55.53125 -45.078125 C 59.050781 -43.441406 62.082031 -40.984375 64.625 -37.703125 C 67.164062 -34.429688 68.4375 -30.132812 68.4375 -24.8125 C 68.4375 -20.226562 67.25 -15.96875 64.875 -12.03125 C 62.5 -8.101562 59.015625 -4.972656 54.421875 -2.640625 C 49.835938 -0.304688 44.394531 0.859375 38.09375 0.859375 Z M 38.09375 0.859375 "/></g></g></g><g fill="#656c73" fill-opacity="1"><g transform="translate(1088.532926, 229.529719)"><g><path d="M 68.1875 -59.953125 C 66.21875 -63.554688 63.515625 -66.300781 60.078125 -68.1875 C 56.640625 -70.070312 52.625 -71.015625 48.03125 -71.015625 C 42.957031 -71.015625 38.453125 -69.863281 34.515625 -67.5625 C 30.585938 -65.269531 27.515625 -61.992188 25.296875 -57.734375 C 23.085938 -53.484375 21.984375 -48.570312 21.984375 -43 C 21.984375 -37.269531 23.109375 -32.273438 25.359375 -28.015625 C 27.617188 -23.753906 30.753906 -20.476562 34.765625 -18.1875 C 38.785156 -15.894531 43.457031 -14.75 48.78125 -14.75 C 55.332031 -14.75 60.695312 -16.488281 64.875 -19.96875 C 69.050781 -23.445312 71.789062 -28.300781 73.09375 -34.53125 L 43.609375 -34.53125 L 43.609375 -47.671875 L 90.0625 -47.671875 L 90.0625 -32.6875 C 88.914062 -26.707031 86.457031 -21.175781 82.6875 -16.09375 C 78.914062 -11.019531 74.0625 -6.945312 68.125 -3.875 C 62.1875 -0.800781 55.53125 0.734375 48.15625 0.734375 C 39.882812 0.734375 32.410156 -1.125 25.734375 -4.84375 C 19.054688 -8.570312 13.8125 -13.753906 10 -20.390625 C 6.195312 -27.023438 4.296875 -34.5625 4.296875 -43 C 4.296875 -51.4375 6.195312 -58.992188 10 -65.671875 C 13.8125 -72.347656 19.054688 -77.546875 25.734375 -81.265625 C 32.410156 -84.992188 39.84375 -86.859375 48.03125 -86.859375 C 57.695312 -86.859375 66.09375 -84.503906 73.21875 -79.796875 C 80.34375 -75.085938 85.257812 -68.472656 87.96875 -59.953125 Z M 68.1875 -59.953125 "/></g></g></g><g fill="#656c73" fill-opacity="1"><g transform="translate(1182.87619, 229.529719)"><g><path d="M 4.296875 -43 C 4.296875 -51.4375 6.195312 -58.992188 10 -65.671875 C 13.8125 -72.347656 19.015625 -77.546875 25.609375 -81.265625 C 32.203125 -84.992188 39.597656 -86.859375 47.796875 -86.859375 C 57.378906 -86.859375 65.773438 -84.398438 72.984375 -79.484375 C 80.191406 -74.578125 85.226562 -67.78125 88.09375 -59.09375 L 68.3125 -59.09375 C 66.34375 -63.1875 63.578125 -66.253906 60.015625 -68.296875 C 56.453125 -70.347656 52.335938 -71.375 47.671875 -71.375 C 42.671875 -71.375 38.222656 -70.207031 34.328125 -67.875 C 30.441406 -65.539062 27.410156 -62.242188 25.234375 -57.984375 C 23.066406 -53.722656 21.984375 -48.726562 21.984375 -43 C 21.984375 -37.351562 23.066406 -32.378906 25.234375 -28.078125 C 27.410156 -23.773438 30.441406 -20.457031 34.328125 -18.125 C 38.222656 -15.789062 42.671875 -14.625 47.671875 -14.625 C 52.335938 -14.625 56.453125 -15.664062 60.015625 -17.75 C 63.578125 -19.84375 66.34375 -22.9375 68.3125 -27.03125 L 88.09375 -27.03125 C 85.226562 -18.269531 80.210938 -11.453125 73.046875 -6.578125 C 65.878906 -1.703125 57.460938 0.734375 47.796875 0.734375 C 39.597656 0.734375 32.203125 -1.125 25.609375 -4.84375 C 19.015625 -8.570312 13.8125 -13.753906 10 -20.390625 C 6.195312 -27.023438 4.296875 -34.5625 4.296875 -43 Z M 4.296875 -43 "/></g></g></g><g fill="#656c73" fill-opacity="1"><g transform="translate(1277.219453, 229.529719)"><g><path d="M 61.0625 -16.34375 L 26.90625 -16.34375 L 21.25 0 L 3.1875 0 L 34.03125 -85.875 L 54.0625 -85.875 L 84.890625 0 L 66.71875 0 Z M 56.390625 -30.09375 L 43.984375 -65.96875 L 31.578125 -30.09375 Z M 56.390625 -30.09375 "/></g></g></g><g fill="#656c73" fill-opacity="1"><g transform="translate(1365.1749, 229.529719)"><g><path d="M 38.09375 0.859375 C 32.113281 0.859375 26.726562 -0.160156 21.9375 -2.203125 C 17.144531 -4.253906 13.351562 -7.203125 10.5625 -11.046875 C 7.78125 -14.898438 6.347656 -19.445312 6.265625 -24.6875 L 24.6875 -24.6875 C 24.9375 -21.164062 26.1875 -18.378906 28.4375 -16.328125 C 30.695312 -14.285156 33.789062 -13.265625 37.71875 -13.265625 C 41.726562 -13.265625 44.878906 -14.226562 47.171875 -16.15625 C 49.472656 -18.082031 50.625 -20.601562 50.625 -23.71875 C 50.625 -26.25 49.84375 -28.332031 48.28125 -29.96875 C 46.726562 -31.613281 44.785156 -32.90625 42.453125 -33.84375 C 40.117188 -34.789062 36.898438 -35.835938 32.796875 -36.984375 C 27.234375 -38.617188 22.707031 -40.234375 19.21875 -41.828125 C 15.738281 -43.429688 12.75 -45.847656 10.25 -49.078125 C 7.757812 -52.316406 6.515625 -56.640625 6.515625 -62.046875 C 6.515625 -67.117188 7.78125 -71.539062 10.3125 -75.3125 C 12.851562 -79.082031 16.414062 -81.96875 21 -83.96875 C 25.59375 -85.976562 30.835938 -86.984375 36.734375 -86.984375 C 45.578125 -86.984375 52.765625 -84.832031 58.296875 -80.53125 C 63.828125 -76.226562 66.878906 -70.226562 67.453125 -62.53125 L 48.53125 -62.53125 C 48.363281 -65.476562 47.113281 -67.914062 44.78125 -69.84375 C 42.445312 -71.769531 39.351562 -72.734375 35.5 -72.734375 C 32.144531 -72.734375 29.460938 -71.875 27.453125 -70.15625 C 25.453125 -68.4375 24.453125 -65.9375 24.453125 -62.65625 C 24.453125 -60.363281 25.207031 -58.457031 26.71875 -56.9375 C 28.238281 -55.425781 30.125 -54.195312 32.375 -53.25 C 34.625 -52.3125 37.796875 -51.226562 41.890625 -50 C 47.460938 -48.363281 52.007812 -46.722656 55.53125 -45.078125 C 59.050781 -43.441406 62.082031 -40.984375 64.625 -37.703125 C 67.164062 -34.429688 68.4375 -30.132812 68.4375 -24.8125 C 68.4375 -20.226562 67.25 -15.96875 64.875 -12.03125 C 62.5 -8.101562 59.015625 -4.972656 54.421875 -2.640625 C 49.835938 -0.304688 44.394531 0.859375 38.09375 0.859375 Z M 38.09375 0.859375 "/></g></g></g></svg>